<?xml version="1.0" standalone="no"?> 
<!DOCTYPE svg PUBLIC "-//W3C//DTD SVG 1.1//EN" "http://www.w3.org/Graphics/SVG/1.1/DTD/svg11.dtd" >
<svg xmlns="http://www.w3.org/2000/svg">
<defs>
  <font id="lamb" horiz-adv-x="100">
    <font-face font-family="lamb"
      units-per-em="100" ascent="100"
      descent="0" />
    <missing-glyph horiz-adv-x="0" />
    <glyph glyph-name="angle-down"
      unicode="&#xEA01;"
      horiz-adv-x="100" d=" M50 20.79C51.14 20.73 52.3 21.11 53.17 21.98L98.77 72.02A4.231 4.231 0 0 1 98.77 77.97A4.177 4.177 0 0 1 92.85 77.97L50 30.96L7.14 77.98A4.177 4.177 0 0 1 1.22 77.98A4.231 4.231 0 0 1 1.22 72.03L46.82 21.99C47.7 21.12 48.86 20.74 50 20.79z" />
    <glyph glyph-name="angle-left"
      unicode="&#xEA02;"
      horiz-adv-x="100" d=" M21.99 46.83L72.03 1.23A4.231 4.231 0 0 1 77.98 1.23A4.177 4.177 0 0 1 77.98 7.15L30.96 50L77.98 92.86C79.62 94.49 79.62 97.14 77.98 98.78S73.67 100.41 72.03 98.78L21.99 53.18C21.11 52.31 20.74 51.15 20.8 50.01C20.74 48.86 21.12 47.7 21.99 46.83z" />
    <glyph glyph-name="angle-right"
      unicode="&#xEA03;"
      horiz-adv-x="100" d=" M79.21 50C79.27 51.14 78.89 52.3 78.02 53.17L27.97 98.77A4.231 4.231 0 0 1 22.02 98.77A4.177 4.177 0 0 1 22.02 92.85L69.04 50L22.02 7.14A4.177 4.177 0 0 1 22.02 1.22A4.231 4.231 0 0 1 27.97 1.22L78.01 46.82C78.88 47.7 79.26 48.86 79.21 50z" />
    <glyph glyph-name="angle-up"
      unicode="&#xEA04;"
      horiz-adv-x="100" d=" M46.83 78.01L1.23 27.97A4.231 4.231 0 0 1 1.23 22.02A4.177 4.177 0 0 1 7.15 22.02L50 69.04L92.86 22.02A4.177 4.177 0 0 1 98.78 22.02A4.231 4.231 0 0 1 98.78 27.97L53.18 78.01C52.31 78.89 51.15 79.26 50.01 79.2C48.86 79.26 47.7 78.88 46.83 78.01z" />
    <glyph glyph-name="arrow-down"
      unicode="&#xEA05;"
      horiz-adv-x="100" d=" M47.51 1.06A3.472 3.472 0 0 1 52.5 1.06L84.1 32.66C85.51 34.02 85.51 36.29 84.1 37.7C82.74 39.06 80.47 39.06 79.06 37.7L53.55 12.15V96.47C53.55 98.44 51.94 100 49.97 100S46.44 98.44 46.44 96.47V12.14L20.89 37.7C19.53 39.06 17.26 39.06 15.9 37.7C14.49 36.29 14.49 34.02 15.9 32.66L47.51 1.06z" />
    <glyph glyph-name="arrow-left"
      unicode="&#xEA06;"
      horiz-adv-x="100" d=" M1.06 52.49A3.472 3.472 0 0 1 1.06 47.5L32.66 15.9C34.02 14.49 36.29 14.49 37.7 15.9C39.06 17.26 39.06 19.53 37.7 20.94L12.15 46.45H96.48C98.45 46.45 100.01 48.06 100.01 50.03S98.45 53.56 96.48 53.56H12.15L37.7 79.11C39.06 80.47 39.06 82.74 37.7 84.1C36.29 85.51 34.02 85.51 32.66 84.1L1.06 52.49z" />
    <glyph glyph-name="arrow-right"
      unicode="&#xEA07;"
      horiz-adv-x="100" d=" M67.34 84.1C65.98 85.51 63.71 85.51 62.3 84.1C60.94 82.74 60.94 80.47 62.3 79.11L87.85 53.56H3.53C1.56 53.55 0 51.99 0 50.03S1.56 46.45 3.53 46.45H87.86L62.3 20.94C60.94 19.53 60.94 17.26 62.3 15.9C63.71 14.49 65.98 14.49 67.34 15.9L98.94 47.5A3.472 3.472 0 0 1 98.94 52.49L67.34 84.1z" />
    <glyph glyph-name="arrow-up"
      unicode="&#xEA08;"
      horiz-adv-x="100" d=" M52.49 98.94A3.472 3.472 0 0 1 47.5 98.94L15.9 67.34C14.49 65.98 14.49 63.71 15.9 62.3C17.26 60.94 19.53 60.94 20.94 62.3L46.45 87.85V3.52C46.45 1.55 48.06 -0.01 50.03 -0.01S53.56 1.55 53.56 3.52V87.85L79.11 62.3C80.47 60.94 82.74 60.94 84.1 62.3C85.51 63.71 85.51 65.98 84.1 67.34L52.49 98.94z" />
    <glyph glyph-name="checkmark"
      unicode="&#xEA09;"
      horiz-adv-x="100" d=" M35.56 15.77C34.49 15.77 33.46 16.2 32.71 16.96L1.17 48.73A4.014 4.014 0 0 0 1.19 54.41A4.005 4.005 0 0 0 6.87 54.39L35.57 25.47L93.15 83.04A4.014 4.014 0 0 0 98.83 83.04A4.014 4.014 0 0 0 98.83 77.36L38.4 16.95A4.02 4.02 0 0 0 35.56 15.77z" />
    <glyph glyph-name="cross"
      unicode="&#xEA0A;"
      horiz-adv-x="100" d=" M56.78 50L98.6 91.81C100.47 93.68 100.47 96.72 98.6 98.59S93.69 100.46 91.82 98.59L50 56.78L8.19 98.59C6.32 100.46 3.28 100.46 1.41 98.59S-0.46 93.68 1.41 91.81L43.22 50L1.41 8.19A4.798 4.798 0 0 1 1.41 1.41C2.35 0.47 3.57 0 4.8 0S7.25 0.47 8.19 1.41L50 43.22L91.81 1.41C92.75 0.48 93.97 0 95.2 0S97.65 0.47 98.59 1.41A4.798 4.798 0 0 1 98.59 8.19L56.78 50z" />
    <glyph glyph-name="download"
      unicode="&#xEA0B;"
      horiz-adv-x="100" d=" M97.13 51.16C95.54 51.16 94.26 49.89 94.26 48.29V22.23C94.26 15.14 88.49 9.39 81.42 9.39H18.57C11.48 9.39 5.73 15.16 5.73 22.23V48.72C5.73 50.31 4.46 51.59 2.86 51.59S0 50.31 0 48.72V22.23C0 11.98 8.34 3.66 18.57 3.66H81.43C91.68 3.66 100 12 100 22.23V48.29A2.87 2.87 0 0 1 97.13 51.16z M47.98 26.41C48.53 25.86 49.27 25.56 50 25.56S51.46 25.84 52.02 26.41L70.23 44.62A2.86 2.86 0 0 1 70.23 48.67A2.86 2.86 0 0 1 66.18 48.67L52.87 35.35V93.47C52.87 95.06 51.6 96.34 50 96.34C48.41 96.34 47.13 95.07 47.13 93.47V35.34L33.81 48.67A2.86 2.86 0 0 1 29.76 48.67A2.86 2.86 0 0 1 29.76 44.62L47.98 26.41z" />
    <glyph glyph-name="facebook"
      unicode="&#xEA0C;"
      horiz-adv-x="100" d=" M75.45 64.28H57.14V73.21S56.11 81.7 62.05 81.7H74.11V100H53.57S36.38 100.07 36.38 82.81C36.38 79.1 36.36 72.35 36.34 64.28H24.55V49.54H36.31L36.16 0H57.14V49.55H70.98L75.45 64.28z" />
    <glyph glyph-name="google"
      unicode="&#xEA0D;"
      horiz-adv-x="100" d=" M82.78 100H55.72C48.63 100 39.7 98.95 32.21 92.79C26.55 87.93 23.8 81.24 23.8 75.2C23.8 64.97 31.68 54.59 45.61 54.59C46.92 54.59 48.36 54.72 49.82 54.85C49.16 53.28 48.5 51.97 48.5 49.73C48.5 45.66 50.6 43.17 52.44 40.81C46.54 40.42 35.5 39.76 27.35 34.78C19.6 30.18 17.23 23.49 17.23 18.76C17.23 9.05 26.43 -0.01 45.48 -0.01C68.08 -0.01 80.03 12.46 80.03 24.8C80.03 33.85 74.78 38.32 68.99 43.17L64.26 46.84C62.82 48.02 60.85 49.59 60.85 52.48C60.85 55.37 62.82 57.21 64.52 58.91C70.04 63.24 75.56 67.83 75.56 77.54C75.56 87.52 69.25 92.77 66.23 95.26H74.38L82.78 100zM71.23 19.69C71.23 11.55 64.53 5.52 51.91 5.52C37.86 5.52 28.79 12.21 28.79 21.53C28.79 30.86 37.2 33.99 40.09 35.05C45.61 36.89 52.7 37.15 53.88 37.15C55.2 37.15 55.85 37.15 56.91 37.02C66.89 29.93 71.23 26.38 71.23 19.69zM60.71 61.95C58.61 59.85 55.06 58.28 51.77 58.28C40.48 58.28 35.36 72.85 35.36 81.64C35.36 85.05 36.02 88.59 38.25 91.35C40.35 93.97 44.03 95.68 47.45 95.68C58.35 95.68 64 80.98 64 71.53C64 69.16 63.73 64.97 60.71 61.95z" />
    <glyph glyph-name="instagram"
      unicode="&#xEA0E;"
      horiz-adv-x="100" d=" M50 90.99C63.35 90.99 64.93 90.94 70.2 90.7C75.07 90.48 77.72 89.66 79.48 88.98C81.81 88.07 83.48 86.99 85.23 85.24C86.98 83.49 88.06 81.82 88.97 79.49C89.65 77.73 90.47 75.08 90.69 70.21C90.93 64.94 90.98 63.36 90.98 50.01S90.93 35.08 90.69 29.81C90.47 24.94 89.65 22.29 88.97 20.53C88.06 18.2 86.98 16.53 85.23 14.78C83.48 13.03 81.81 11.95 79.48 11.04C77.72 10.36 75.07 9.54 70.2 9.32C64.93 9.08 63.35 9.03 50 9.03S35.07 9.08 29.8 9.32C24.93 9.54 22.28 10.36 20.52 11.04C18.19 11.95 16.52 13.03 14.77 14.78C13.02 16.53 11.94 18.2 11.03 20.53C10.35 22.29 9.53 24.94 9.31 29.81C9.06 35.07 9.01 36.65 9.01 50S9.06 64.93 9.3 70.2C9.52 75.07 10.34 77.72 11.02 79.48C11.93 81.81 13.01 83.48 14.76 85.23C16.51 86.98 18.18 88.06 20.51 88.97C22.27 89.65 24.92 90.47 29.79 90.69C35.07 90.94 36.65 90.99 50 90.99M50 100C36.42 100 34.72 99.94 29.39 99.7C24.07 99.46 20.43 98.61 17.25 97.38C13.96 96.1 11.17 94.39 8.39 91.61C5.61 88.83 3.9 86.04 2.62 82.75C1.38 79.57 0.54 75.93 0.3 70.61C0.06 65.28 0 63.58 0 50C0 36.42 0.06 34.72 0.3 29.39C0.54 24.07 1.39 20.43 2.62 17.25C3.9 13.96 5.61 11.17 8.39 8.39C11.17 5.61 13.96 3.9 17.25 2.62C20.43 1.38 24.07 0.54 29.39 0.3C34.72 0.06 36.43 0 50 0S65.28 0.06 70.61 0.3C75.93 0.54 79.57 1.39 82.75 2.62C86.04 3.9 88.83 5.61 91.61 8.39C94.39 11.17 96.1 13.96 97.38 17.25C98.62 20.43 99.46 24.07 99.7 29.39C99.94 34.72 100 36.43 100 50S99.94 65.28 99.7 70.61C99.46 75.93 98.61 79.57 97.38 82.75C96.1 86.04 94.39 88.83 91.61 91.61C88.83 94.39 86.04 96.1 82.75 97.38C79.57 98.62 75.93 99.46 70.61 99.7C65.28 99.94 63.58 100 50 100z M50 75.68C35.82 75.68 24.32 64.18 24.32 50S35.82 24.32 50 24.32S75.68 35.82 75.68 50S64.18 75.68 50 75.68zM50 33.33C40.8 33.33 33.33 40.79 33.33 50S40.8 66.67 50 66.67S66.67 59.2 66.67 50S59.2 33.33 50 33.33z M70.7 76.7C70.7 73.3862915010152 73.3862915010152 70.7 76.7 70.7C80.0137084989848 70.7 82.7 73.3862915010152 82.7 76.7C82.7 80.0137084989848 80.0137084989848 82.7 76.7 82.7C73.3862915010152 82.7 70.7 80.0137084989848 70.7 76.7z" />
    <glyph glyph-name="lamb"
      unicode="&#xEA0F;"
      horiz-adv-x="100" d=" M0.9 56.43C3.85 52.69 6.8 58.93 9.54 61.71C9.61 61.5 9.69 61.3 9.78 61.1C7.6 58.41 6.7 55.08 7.3 51.74C7.9 48.41 9.94 45.5 12.96 43.56C12.8 40.25 14.1 37.03 16.64 34.55C17.86 33.36 19.33 32.41 20.94 31.72V12.7C20.94 10.97 22.34 9.56 24.08 9.56C25.81 9.56 27.22 10.96 27.22 12.7V29.42C29.1 27.13 31.8 25.46 34.95 24.72C36.12 24.45 37.32 24.31 38.52 24.31C41.03 24.31 43.45 24.9 45.6 26.03C47.59 25.11 49.8 24.62 52.05 24.62C53.49 24.62 54.92 24.82 56.3 25.21C57.67 25.6 58.94 26.16 60.08 26.88V12.7C60.08 10.97 61.48 9.56 63.22 9.56C64.95 9.56 66.36 10.96 66.36 12.7V31.67C69.34 32.28 72.03 33.74 74.01 35.89C74.93 36.88 75.65 37.97 76.18 39.13C78.94 37.23 82.08 36.15 85.19 36.15C87.48 36.15 89.61 36.71 91.54 37.81C95.18 39.89 96.96 43.93 96.56 49.19C96.44 50.83 96.1 52.57 95.59 54.35A7.602 7.602 0 0 1 99 57.3C100.04 58.99 100.29 60.92 99.71 62.73C99.14 64.48 97.84 66 95.86 67.24C93.8 68.53 91.33 69.19 88.54 69.19C87.73 69.19 86.9 69.13 86.07 69.02C84.36 70.06 82.53 70.59 80.61 70.59C80.14 70.59 79.68 70.56 79.2 70.49C78.97 71.1 78.69 71.7 78.35 72.29C76.62 75.27 73.65 77.47 70.1 78.46C69.11 81.65 66.77 84.36 63.51 86.01C61.41 87.07 59.03 87.63 56.63 87.63C55.7 87.63 54.77 87.55 53.85 87.38C51.31 89.35 48.1 90.43 44.69 90.43C40.94 90.43 37.4 89.1 34.78 86.76C33.77 86.96 32.74 87.07 31.7 87.07C29.04 87.07 26.44 86.39 24.19 85.11C21.02 83.31 18.84 80.5 18.04 77.26C14.55 76.11 11.72 73.77 10.17 70.71C9.49 69.37 9.09 67.97 8.95 66.56C4.71 64.74 -2.55 60.82 0.9 56.43zM70.61 41.25C68.77 41.25 67.29 42.53 67.29 45.75C67.29 49.29 69.54 52.24 70.91 53.71C70.2 58.74 71.94 63.48 75.81 65.69C77.5 66.66 79.09 67.14 80.59 67.14C82.24 67.14 83.78 66.56 85.24 65.38C86.06 65.55 87.22 65.73 88.52 65.73C90.26 65.73 92.26 65.41 94.01 64.31C96.73 62.61 97.02 60.66 96.05 59.09C95.46 58.14 94.25 57.22 92.97 57.22C92.13 57.22 91.26 57.61 90.51 58.62C90.36 58.83 90.2 59.03 90.05 59.22C90.02 59.18 89.9800000000001 59.14 89.9500000000001 59.1C93.4600000000001 52.35 95 43.75 89.8200000000001 40.79C88.3800000000001 39.97 86.8000000000001 39.58 85.1700000000001 39.58C81.2600000000001 39.58 77.11 41.84 74.22 45.74C74.13 45.73 74.04 45.72 73.94 45.72C75.08 42.73 72.44 41.25 70.61 41.25zM13.75 59.25L14.93 60.39L14.1 61.8C12.82 64 12.73 66.55 13.88 68.8C15.07 71.14 17.42 72.88 20.32 73.55L21.75 73.88L21.92 75.34C22.21 77.83 23.79 80.06 26.24 81.45C27.86 82.37 29.74 82.86 31.68 82.86C32.75 82.86 33.81 82.71 34.83 82.42L36.07 82.07L36.94 83.02C38.82 85.06 41.64 86.23 44.68 86.23C47.43 86.23 49.98 85.28 51.87 83.56L52.7 82.8L53.79 83.08C54.71 83.31 55.66 83.43 56.61 83.43C58.36 83.43 60.09 83.02 61.61 82.26C64.15 80.97 65.86 78.81 66.31 76.33L66.57 74.91L67.99 74.65C70.94 74.11 73.39 72.48 74.73 70.18C74.91 69.87 75.06 69.56 75.19 69.24C74.83 69.07 74.47 68.88 74.11 68.68C71.56 67.22 69.6 64.92 68.45 62.03C67.58 59.83 67.2 57.37 67.35 54.83C65.73 52.79 63.85 49.58 63.85 45.74C63.85 43.39 64.45 41.49 65.62 40.08C66.71 38.77 68.24 37.99 69.96 37.83C68.14 36.36 65.74 35.53 63.17 35.53H61.8L61.25 34.27C60.21 31.88 57.98 30.04 55.14 29.24C54.13 28.95 53.08 28.81 52.03 28.81C50.08 28.81 48.19 29.3 46.55 30.23L45.45 30.86L44.39 30.18C42.69 29.1 40.6 28.5 38.5 28.5C37.62 28.5 36.74 28.6 35.89 28.8C33 29.48 30.66 31.22 29.47 33.57L28.86 34.78L27.51 34.72C27.33 34.71 27.14 34.71 26.96 34.71C24.12 34.71 21.43 35.75 19.56 37.57C17.65 39.43 16.81 41.9 17.25 44.3399999999999L17.53 45.8799999999999L16.13 46.58C13.58 47.87 11.86 50.0199999999999 11.41 52.5C10.98 54.92 11.82 57.39 13.75 59.25z" />
    <glyph glyph-name="linkedin"
      unicode="&#xEA10;"
      horiz-adv-x="100" d=" M92.62 100H7.39C3.31 100 0 96.79 0 92.84V7.17C0 3.21 3.31 0 7.39 0H92.62C96.7 0 100 3.21 100 7.17V92.84C100 96.79 96.7 100 92.62 100zM30.32 16.29H15.21V61.44H30.32V16.29zM22.76 67.61H22.66C17.59 67.61 14.31 71.08 14.31 75.41C14.31 79.84 17.69 83.21 22.86 83.21C28.03 83.21 31.21 79.84 31.31 75.41C31.31 71.07 28.03 67.61 22.76 67.61zM84.78 16.29H69.68V40.45C69.68 46.52 67.49 50.66 62.03 50.66C57.85 50.66 55.37 47.87 54.28 45.17C53.88 44.21 53.78 42.86 53.78 41.51V16.29H38.68S38.88 57.2 38.68 61.44H53.78V55.04C55.79 58.12 59.37 62.5 67.39 62.5C77.33 62.5 84.79 56.05 84.79 42.18L84.78 16.29zM53.68 54.9C53.71 54.94 53.74 54.99 53.78 55.04V54.9H53.68z" />
    <glyph glyph-name="marker"
      unicode="&#xEA11;"
      horiz-adv-x="100" d=" M50 100C31.76 100 16.92 85.16 16.92 66.92C16.92 59.57 21.61 47.6 31.26 30.31C38.09 18.08 44.8 7.88 45.08 7.45L50 0L54.92 7.45C55.2 7.88 61.92 18.08 68.74 30.31C78.39 47.6 83.08 59.58 83.08 66.92C83.08 85.16 68.24 100 50 100zM50 50C40.53 50 32.85 57.68 32.85 67.15S40.53 84.29 50 84.29S67.15 76.61 67.15 67.14S59.47 50 50 50z" />
    <glyph glyph-name="phone"
      unicode="&#xEA12;"
      horiz-adv-x="100" d=" M99.95 21.08C100.16 19.46 99.67 18.04 98.47 16.84L84.39 2.86C83.75 2.15 82.93 1.55 81.9 1.06C80.88 0.57 79.87 0.25 78.88 0.11C78.81 0.11 78.6 0.09 78.24 0.06C77.89 0.02 77.43 0.01 76.86 0.01C75.52 0.01 73.35 0.24 70.35 0.7C67.35 1.16 63.68 2.29 59.34 4.09S50.08 8.59 44.57 12.19C39.07 15.79 33.21 20.74 27 27.02C22.06 31.89 17.97 36.55 14.72 41C11.47 45.45 8.86 49.56 6.89 53.34C4.91 57.12 3.43 60.54 2.44 63.62S0.78 69.34 0.43 71.56S-0.06 75.53 0.01 76.8S0.12 78.78 0.12 78.92C0.26 79.91 0.58 80.92 1.07 81.94S2.16 83.79 2.87 84.43L16.96 98.52C17.94 99.51 19.07 100 20.34 100C21.26 100 22.07 99.74 22.77 99.21S24.08 98.03 24.57 97.25L35.9 75.75C36.54 74.62 36.71 73.38 36.43 72.04C36.15 70.7 35.55 69.57 34.63 68.65L29.44 63.46C29.3 63.32 29.18 63.09 29.07 62.77C28.96 62.45 28.91 62.19 28.91 61.98C29.19 60.5 29.83 58.8 30.82 56.9C31.67 55.21 32.97 53.14 34.74 50.7C36.5 48.26 39.01 45.46 42.26 42.28C45.44 39.03 48.26 36.51 50.73 34.71C53.2 32.91 55.26 31.59 56.92 30.74C58.58 29.89 59.85 29.38 60.73 29.2L62.05 28.94C62.19 28.94 62.42 28.99 62.74 29.1C63.06 29.21 63.29 29.33 63.43 29.47L69.46 35.61C70.73 36.74 72.21 37.3 73.91 37.3C75.11 37.3 76.06 37.09 76.77 36.66H76.88L97.31 24.58C98.79 23.66 99.67 22.49 99.95 21.08z" />
    <glyph glyph-name="pinterest"
      unicode="&#xEA13;"
      horiz-adv-x="100" d=" M88.44 72.19C85.71 91.96 66.01 102.02 45 99.66C28.39 97.8 11.82 84.37 11.14 65.16C10.72 53.44 14.05 44.64 25.2 42.17C30.03 50.72 23.64 52.59 22.64 58.78C18.55 84.09 51.84 101.38 69.28 83.69C81.36 71.44 73.4 33.78 53.95 37.7C35.32 41.44 63.07 71.42 48.21 77.3C36.12 82.09 29.7 62.67 35.43 53.02C32.07 36.43 24.83 20.8 27.76 0C37.26 6.9 40.47 20.09 43.09 33.86C47.86 30.95 50.42 27.95 56.51 27.48C78.96 25.74 91.52 49.89 88.44 72.19z" />
    <glyph glyph-name="search"
      unicode="&#xEA14;"
      horiz-adv-x="100" d=" M68.88 34.72C75.27 41.64 79.26 50.91 79.26 61.11C79.26 82.52 61.84 100 40.37 100S1.49 82.52 1.49 61.11S18.91 22.22 40.38 22.22C49.12 22.22 57.15 25.09 63.66 29.96L92.57 1.05C93.27 0.35 94.15 -0.01 95.03 -0.01C95.91 -0.01 96.85 0.34 97.49 1.05C98.84 2.4 98.84 4.63 97.49 6.04L68.88 34.72zM8.53 61.11C8.53 78.65 22.78 92.96 40.38 92.96C57.92 92.96 72.23 78.71 72.23 61.11S57.97 29.27 40.37 29.27S8.53 43.58 8.53 61.11z" />
    <glyph glyph-name="spinner"
      unicode="&#xEA15;"
      horiz-adv-x="100" d=" M50 100A3.73 3.73 0 0 1 46.27 96.27V70.9A3.73 3.73 0 0 1 53.73 70.9V96.27A3.73 3.73 0 0 1 50 100zM50 32.84A3.73 3.73 0 0 1 46.27 29.11V3.74A3.73 3.73 0 0 1 53.73 3.74V29.1C53.73 31.17 52.06 32.84 50 32.84zM32.84 49.82A3.73 3.73 0 0 1 29.11 53.55H3.73A3.73 3.73 0 0 1 3.73 46.09H29.1C31.17 46.09 32.84 47.76 32.84 49.82zM96.27 53.55H70.9A3.73 3.73 0 0 1 70.9 46.09H96.27A3.73 3.73 0 0 1 96.27 53.55zM21.01 85.67C19.55 87.13 17.19 87.13 15.73 85.67S14.27 81.85 15.73 80.39L33.67 62.45C34.4 61.72 35.35 61.36 36.31 61.36S38.22 61.72 38.95 62.45A3.73 3.73 0 0 1 38.95 67.73L21.01 85.67zM68.5 38.18A3.73 3.73 0 0 1 63.22 38.18A3.73 3.73 0 0 1 63.22 32.9L81.16 14.96C81.89 14.23 82.84 13.87 83.8 13.87A3.73 3.73 0 0 1 86.44 20.24L68.5 38.18zM33.68 37.12L15.74 19.18A3.73 3.73 0 0 1 18.38 12.81C19.34 12.81 20.29 13.17 21.02 13.9L38.96 31.84A3.73 3.73 0 0 1 38.96 37.12A3.73 3.73 0 0 1 33.68 37.12zM63.23 61.4C63.96 60.67 64.91 60.31 65.87 60.31S67.78 60.67 68.51 61.4L86.45 79.34A3.73 3.73 0 0 1 86.45 84.62A3.73 3.73 0 0 1 81.17 84.62L63.23 66.67A3.718 3.718 0 0 1 63.23 61.4z" />
    <glyph glyph-name="twitter"
      unicode="&#xEA16;"
      horiz-adv-x="100" d=" M100 81A40.868 40.868 0 0 0 88.22 77.77A20.61 20.61 0 0 1 97.24 89.11A41.163 41.163 0 0 0 84.2 84.13A20.466 20.466 0 0 1 69.23 90.61C57.9 90.61 48.72 81.42 48.72 70.1C48.72 68.49 48.9 66.93 49.25 65.43C32.2 66.29 17.08 74.45 6.97 86.87C5.2 83.85 4.2 80.32 4.2 76.56C4.2 69.44 7.82 63.16 13.32 59.49C9.96 59.6 6.8 60.53 4.03 62.06V61.8C4.03 51.86 11.1 43.57 20.48 41.68C18.76 41.22 16.95 40.96 15.07 40.96C13.75 40.96 12.46 41.09 11.21 41.34C13.82 33.19 21.4 27.26 30.37 27.09C23.35 21.59 14.5 18.32 4.89 18.32C3.23 18.32 1.6 18.42 0 18.6C9.08 12.77 19.86 9.37 31.44 9.37C69.18 9.37 89.8 40.63 89.8 67.73L89.73 70.39C93.77 73.28 97.26 76.89 100 81z" />
    <glyph glyph-name="youtube"
      unicode="&#xEA17;"
      horiz-adv-x="100" d=" M78.82 26.85H73.33L73.36 30.04C73.36 31.46 74.52 32.62 75.94 32.62H76.29C77.71 32.62 78.88 31.46 78.88 30.04L78.82 26.85zM58.24 33.68C56.85 33.68 55.71 32.74 55.71 31.6V16.1C55.71 14.96 56.85 14.02 58.24 14.02C59.64 14.02 60.78 14.95 60.78 16.1V31.6C60.77 32.75 59.63 33.68 58.24 33.68zM91.67 42.36V12.87C91.67 5.8 85.54 0.01 78.04 0.01H21.97C14.47 0.01 8.34 5.8 8.34 12.87V42.36C8.34 49.43 14.47 55.22 21.97 55.22H78.04C85.53 55.22 91.67 49.43 91.67 42.36zM25.71 9.66V40.73H32.66V45.33L14.13 45.36V40.83L19.91 40.81V9.66H25.71zM46.54 36.1H40.75V19.51C40.75 17.11 40.9 15.91 40.74 15.49C40.27 14.2 38.15 12.84 37.33 15.35C37.19 15.79 37.31 17.12 37.31 19.4L37.29 36.1H31.53L31.55 19.66C31.55 17.14 31.49 15.26 31.57 14.41C31.71 12.9 31.66 11.14 33.06 10.14C35.67 8.26 40.66 10.42 41.91 13.1L41.9 9.67L46.55 9.66L46.54 36.1zM65.08 17.1L65.07 30.91C65.07 36.17 61.13 39.32 55.79 35.07L55.81 45.34L50.02 45.33L49.99 9.9L54.75 9.97L55.18 12.18C61.26 6.59 65.09 10.41 65.08 17.1zM83.21 18.93L78.87 18.91C78.87 18.74 78.86 18.54 78.86 18.32V15.9C78.86 14.6 77.79 13.55 76.49 13.55H75.64C74.34 13.55 73.26 14.61 73.26 15.9V22.28H83.21V26.02C83.21 28.76 83.14 31.49 82.91 33.06C82.2 38.01 75.25 38.79 71.74 36.26C70.64 35.47 69.8 34.41 69.31 32.99C68.82 31.57 68.57 29.62 68.57 27.15V18.92C68.57 5.23 85.2 7.16 83.21 18.93zM60.93 63.63C61.23 62.9 61.69 62.31 62.32 61.87C62.94 61.43 63.74 61.21 64.69 61.21C65.53 61.21 66.27 61.44 66.91 61.9C67.55 62.36 68.09 63.06 68.54 63.98L68.43 61.71H74.89V89.18H69.8V67.8A2.119 2.119 0 0 0 65.56 67.8V89.18H60.25V70.65C60.25 68.29 60.29 66.72 60.36 65.92C60.44 65.13 60.63 64.37 60.93 63.63zM41.35 79.14C41.35 81.78 41.57 83.84 42.01 85.32C42.45 86.8 43.24 87.99 44.38 88.88C45.52 89.78 46.98 90.23 48.76 90.23C50.25 90.23 51.53 89.94 52.6 89.36C53.67 88.78 54.5 88.03 55.08 87.11C55.67 86.18 56.06 85.23 56.28 84.25C56.5 83.26 56.6 81.77 56.6 79.75V72.8C56.6 70.25 56.5 68.38 56.3 67.19A9.07 9.07 0 0 0 55.03 63.85C54.39 62.82 53.55 62.06 52.54 61.57C51.52 61.08 50.35 60.83 49.04 60.83C47.57 60.83 46.33 61.03 45.31 61.46C44.28 61.88 43.49 62.52 42.93 63.36C42.36 64.21 41.96 65.24 41.72 66.44C41.48 67.64 41.36 69.45 41.36 71.86L41.35 79.14zM46.41 68.23C46.41 66.67 47.57 65.4 48.98 65.4S51.54 66.67 51.54 68.23V82.86C51.54 84.41 50.39 85.68 48.98 85.68C47.57 85.68 46.41 84.41 46.41 82.86V68.23zM28.54 60.85H34.63L34.64 81.92L41.84 99.97H35.18L31.35 86.57L27.46 100H20.86L28.52 81.91L28.54 60.85z" />
  </font>
</defs>
</svg>
